# xmcd
#
# Track frame offsets:
#	150
#	14427
#	24383
#	35233
#	46794
#	61021
#	75262
#	85450
#	98940
#	110724
#	120608
#	133031
#	146946
#	157401
#	173362
#	185662
#	202132
#	215299
#	229580
#	244098
#	258810
#	271649
#	283512
#	296594
#	307529
#	319613
#	330966
#
# Disc length: 4531 seconds
#
# Revision: 1
# Processed by: cddbd v1.5PL3 Copyright (c) Steve Scherf et al.
# Submitted via: audiograbber 1.80
#
DISCID=7511b11b
DTITLE=frankie laine - `I Believe cd1
DYEAR=1900
DGENRE=
TTITLE0=Jezebel 
TTITLE1=Flamenco 
TTITLE2=Love Is Such A Cheat 
TTITLE3=Rose, Rose I Love You 
TTITLE4=The Girl In The Wood 
TTITLE5=Wonderful, Wasn't It? 
TTITLE6=Pretty Eyed (& Jo Stafford) 
TTITLE7=That's The One For Me (& Jo Stafford) 
TTITLE8=In The Cool, Cool Cool Of The Evening 
TTITLE9=That's Good! That's Bad! (& Jo Stafford) 
TTITLE10=Gambella (The Gamblin' Lady) (& Jo Stafford) 
TTITLE11=Song Of The Islands 
TTITLE12=Hey, Good Lookin' (& Jo Stafford) 
TTITLE13=When It's Sleepy Time Down South 
TTITLE14=She Reminds Me Of You 
TTITLE15=One For My Baby 
TTITLE16=Necessary Evil 
TTITLE17=To Be Worthy Of You 
TTITLE18=Jealousy (Jalousie) 
TTITLE19=Tomorrow Mountain 
TTITLE20=Snow In Lover's Lane 
TTITLE21=That's How It Goes 
TTITLE22=When You're In Love 
TTITLE23=The Gandy Dancer's Ball 
TTITLE24=Ramblin' Man 
TTITLE25=How Lovely Cooks The Meat (& Doris Day) 
TTITLE26=Sugarbush (& Doris Day) 
EXTD=
EXTT0=
EXTT1=
EXTT2=
EXTT3=
EXTT4=
EXTT5=
EXTT6=
EXTT7=
EXTT8=
EXTT9=
EXTT10=
EXTT11=
EXTT12=
EXTT13=
EXTT14=
EXTT15=
EXTT16=
EXTT17=
EXTT18=
EXTT19=
EXTT20=
EXTT21=
EXTT22=
EXTT23=
EXTT24=
EXTT25=
EXTT26=
PLAYORDER=
